<svg xmlns="http://www.w3.org/2000/svg" viewBox="0 0 512 512" width="512" height="512">
    <rect width="512" height="512" rx="100" fill="#1A1A1E" />
    <g fill="none" stroke="#D3FF32" stroke-width="32" stroke-linecap="round" stroke-linejoin="round" transform="translate(128, 128) scale(10.6)">
        <polygon points="3 8 9 8 9 21 3 21 3 8" />
        <line x1="6" y1="3" x2="6" y2="8" />
        <line x1="6" y1="21" x2="6" y2="21" />
        <path d="M9 11v1a3 3 0 0 0 3 3h1a2 2 0 0 0 2-2V9a2 2 0 0 0-2-2h-1" />
        <line x1="6" y1="12" x2="6" y2="12" />
        <line x1="6" y1="16" x2="6" y2="16" />
        <line x1="3" y1="21" x2="9" y2="21" />
    </g>
</svg>
